<svg width="100" height="50" viewBox="0 0 200 100" fill="none" xmlns="http://www.w3.org/2000/svg">
<path d="M45.7422 40.4749C47.0508 40.4749 47.8027 40.0062 47.998 39.0687C48.0176 38.932 48.0273 38.805 48.0273 38.6878C48.0273 37.6917 47.4023 36.8617 46.1523 36.1976C45.8789 36.0414 45.4395 35.8363 44.834 35.5824C43.3691 34.9378 42.4023 34.3421 41.9336 33.7953C41.4258 33.2093 41.1719 32.516 41.1719 31.7152C41.1719 30.055 42.0801 28.932 43.8965 28.346C44.6582 28.0921 45.5078 27.9652 46.4453 27.9652C47.9688 27.9652 49.1602 28.2386 50.0195 28.7855C50.0195 28.1996 50.1953 27.8773 50.5469 27.8187C50.625 27.7992 50.7031 27.7894 50.7812 27.7894V31.4515H49.8438C49.7656 29.6742 48.7988 28.7757 46.9434 28.7562C45.6934 28.7562 44.9219 29.1664 44.6289 29.9867C44.5703 30.182 44.541 30.3773 44.541 30.5726C44.541 31.4124 45.127 32.1253 46.2988 32.7113C46.5332 32.848 46.9238 33.0335 47.4707 33.2679C48.9941 33.9515 50.0098 34.5765 50.5176 35.1429C51.1035 35.807 51.3965 36.598 51.3965 37.516C51.3965 39.2152 50.5176 40.3578 48.7598 40.9437C48.0371 41.1781 47.2266 41.2953 46.3281 41.2953C44.6094 41.2953 43.1641 40.9925 41.9922 40.3871C41.9922 40.8949 41.8652 41.1878 41.6113 41.266C41.4941 41.2855 41.3574 41.2953 41.2012 41.2953V36.8421H42.1973C42.2363 39.2445 43.418 40.4554 45.7422 40.4749ZM57.168 34.6449C57.168 31.9105 57.5 30.1624 58.1641 29.4007C58.5742 28.9515 59.1504 28.7269 59.8926 28.7269C61.1426 28.7269 61.9434 29.3617 62.2949 30.6312C62.5293 31.4515 62.6465 32.7503 62.6465 34.5277C62.6465 37.3792 62.2754 39.1761 61.5332 39.9183C61.1035 40.3285 60.5469 40.5335 59.8633 40.5335C58.6523 40.5335 57.8711 39.9085 57.5195 38.6585C57.2852 37.8187 57.168 36.4808 57.168 34.6449ZM60.0391 27.9652C57.6367 27.9652 55.791 28.7855 54.502 30.4261C53.6035 31.598 53.1543 32.9652 53.1543 34.5277C53.1543 36.7347 53.916 38.4828 55.4395 39.7718C56.6504 40.7874 58.0957 41.2953 59.7754 41.2953C62.0801 41.2953 63.8867 40.4652 65.1953 38.805C66.1719 37.555 66.6602 36.1097 66.6602 34.4691C66.6602 32.2816 65.8887 30.5726 64.3457 29.3421C63.1543 28.4242 61.7188 27.9652 60.0391 27.9652ZM76.2988 40.2406H74.2188V29.1956H77.5293V28.4046H74.2188V28.2581C74.2188 25.3089 74.4434 23.5511 74.8926 22.9847C75.127 22.7113 75.4297 22.5746 75.8008 22.5746C76.2891 22.5746 76.6895 22.9456 77.002 23.6878C77.3926 24.5863 77.6465 25.1136 77.7637 25.2699C78.0957 25.641 78.4863 25.8363 78.9355 25.8558C79.7363 25.8558 80.2637 25.5433 80.5176 24.9183C80.5762 24.7621 80.6055 24.596 80.6055 24.4203C80.6055 23.5609 80.0977 22.8773 79.082 22.3695C78.3398 21.9984 77.4414 21.8128 76.3867 21.8128C74.1016 21.8128 72.4512 22.6331 71.4355 24.2738C70.8105 25.2894 70.498 26.5394 70.498 28.0238V28.4046H68.125V29.1956H70.498V38.7171C70.459 39.7328 69.7168 40.2406 68.2715 40.2406V41.0023H77.002C77.002 40.5531 76.875 40.3089 76.6211 40.2699C76.5234 40.2503 76.416 40.2406 76.2988 40.2406ZM78.1152 29.3128H80.1367V36.6371C80.1367 39.4691 81.3086 41.0218 83.6523 41.2953C83.8867 41.3148 84.1211 41.3246 84.3555 41.3246C85.8594 41.3246 86.8945 40.8363 87.4609 39.8597C87.7344 39.3714 87.9492 38.7269 88.1055 37.9261L87.3145 37.8089C86.9238 39.391 86.3477 40.2601 85.5859 40.4164C85.4688 40.4359 85.3516 40.4456 85.2344 40.4456C84.5117 40.4456 84.0723 39.9378 83.916 38.9222C83.877 38.6878 83.8574 38.4437 83.8574 38.1898V29.3128H87.7246V28.5511H83.8574V25.1527L80.1367 25.7679V28.5511H78.1152V29.3128Z" fill="black"/>
<path d="M116.105 47.9566C116.105 47.0972 115.724 46.4624 114.962 46.0523C114.63 45.857 114.278 45.7593 113.907 45.7593C113.067 45.7593 112.433 46.1402 112.003 46.9019C111.827 47.2339 111.739 47.5855 111.739 47.9566C111.739 48.816 112.12 49.441 112.882 49.8316C113.214 50.0074 113.556 50.0953 113.907 50.0953C114.767 50.0953 115.401 49.7339 115.812 49.0113C116.007 48.6792 116.105 48.3277 116.105 47.9566ZM110.362 51.7945V52.5562H112.208V62.107C112.208 63.0249 112.247 64.3238 112.325 66.0035C112.364 66.9605 112.384 67.5953 112.384 67.9078C112.364 68.8257 112.101 69.2945 111.593 69.314C111.202 69.314 110.929 69.0113 110.772 68.4058C110.597 67.605 110.44 67.107 110.304 66.9117C110.03 66.5601 109.63 66.3843 109.103 66.3843C108.36 66.3843 107.901 66.6968 107.726 67.3218C107.687 67.4585 107.667 67.5953 107.667 67.732C107.667 68.5914 108.146 69.2457 109.103 69.6949C109.689 69.9683 110.392 70.105 111.212 70.105C114.122 70.105 115.685 68.1519 115.899 64.2457C115.919 63.9527 115.929 63.6499 115.929 63.3374V51.7945H110.362ZM122.579 58.0347C122.579 55.3003 122.911 53.5523 123.575 52.7906C123.985 52.3414 124.562 52.1167 125.304 52.1167C126.554 52.1167 127.355 52.7515 127.706 54.021C127.94 54.8414 128.058 56.1402 128.058 57.9175C128.058 60.7691 127.687 62.566 126.944 63.3082C126.515 63.7183 125.958 63.9234 125.274 63.9234C124.064 63.9234 123.282 63.2984 122.931 62.0484C122.696 61.2085 122.579 59.8707 122.579 58.0347ZM125.45 51.355C123.048 51.355 121.202 52.1753 119.913 53.816C119.015 54.9878 118.565 56.355 118.565 57.9175C118.565 60.1246 119.327 61.8726 120.851 63.1617C122.062 64.1773 123.507 64.6851 125.187 64.6851C127.491 64.6851 129.298 63.855 130.606 62.1949C131.583 60.9449 132.071 59.4996 132.071 57.8589C132.071 55.6714 131.3 53.9624 129.757 52.732C128.565 51.814 127.13 51.355 125.45 51.355ZM138.927 69.1968V63.3374C139.689 64.1968 140.851 64.646 142.413 64.6851C144.347 64.6851 145.899 63.9429 147.071 62.4585C148.048 61.1695 148.536 59.5679 148.536 57.6539C148.536 55.1734 147.794 53.3765 146.31 52.2632C145.509 51.6578 144.591 51.355 143.556 51.355C141.993 51.355 140.724 51.9312 139.747 53.0835C139.356 53.5523 139.064 54.0601 138.868 54.607L138.722 51.7945H133.536V52.5562H135.206V67.6734C135.206 68.5132 134.884 69.0015 134.239 69.1382C134.024 69.1773 133.79 69.1968 133.536 69.1968V69.9585H141.153C141.153 69.5093 141.026 69.2652 140.772 69.2261C140.655 69.2066 140.538 69.1968 140.421 69.1968H138.927ZM142.003 52.7613C143.683 52.8003 144.522 54.5777 144.522 58.0933C144.503 61.941 143.595 63.8746 141.798 63.8941C140.743 63.8941 139.952 63.2496 139.425 61.9605C139.073 61.0621 138.897 59.9585 138.897 58.6499C138.897 56.2085 139.425 54.4703 140.48 53.4351C140.948 52.9859 141.456 52.7613 142.003 52.7613Z" fill="black"/>
<path d="M75.0088 60.0193C75.0191 58.9148 74.1321 58.0137 73.0275 58.0068C71.923 57.9998 71.0192 58.8895 71.0089 59.994L75.0088 60.0193ZM71.2544 96.4109C72.0281 97.1968 73.2944 97.2048 74.0828 96.4287L86.9294 83.7817C87.7177 83.0056 87.7295 81.7394 86.9558 80.9534C86.1821 80.1675 84.9158 80.1595 84.1274 80.9356L72.7082 92.1773L61.5005 80.7927C60.7267 80.0067 59.4604 79.9987 58.6721 80.7748C57.8838 81.5509 57.8719 82.8172 58.6457 83.6031L71.2544 96.4109ZM71.0089 59.994L70.6818 94.993L74.6818 95.0183L75.0088 60.0193L71.0089 59.994Z" fill="#EC4343"/>
<path d="M135.603 2.60401C134.837 1.81317 133.571 1.79708 132.775 2.56807L119.809 15.132C119.013 15.903 118.99 17.1691 119.756 17.9599C120.522 18.7508 121.788 18.7669 122.584 17.9959L134.11 6.82793L145.21 18.2834C145.976 19.0742 147.242 19.0903 148.038 18.3194C148.834 17.5484 148.857 16.2823 148.091 15.4914L135.603 2.60401ZM135.504 39.0212L136.163 4.02542L132.163 3.97459L131.505 38.9704L135.504 39.0212Z" fill="#242282"/>
</svg>
